<?xml version="1.0" encoding="UTF-8" standalone="no"?>
<!-- Created with Inkscape (http://www.inkscape.org/) -->

<svg
   width="265.25323"
   height="62.719971"
   viewBox="0 0 265.25323 62.719971"
   version="1.1"
   id="svg1"
   xmlns="http://www.w3.org/2000/svg"
   xmlns:svg="http://www.w3.org/2000/svg">
  <defs
     id="defs1" />
  <g
     id="layer1"
     transform="translate(-597.14838,-202.56558)">
    <path
       style="font-weight:bold;font-size:85.3333px;font-family:Sans;-inkscape-font-specification:'Sans, Bold';stroke-width:1.002"
       d="m 831.51096,203.50425 q 12.45866,0 18.34666,4.52266 5.97333,4.52267 5.97333,13.73866 0,4.18133 -1.62134,7.33867 -1.53599,3.07199 -4.18133,5.29066 -2.56,2.13333 -5.54666,3.49866 l 17.91999,26.53866 H 848.06562 L 833.55896,241.0509 h -6.912 v 23.38132 h -12.88533 v -60.92797 z m -0.93867,10.58132 h -3.92533 v 16.46933 h 4.18133 q 6.4,0 9.13066,-2.13333 2.816,-2.13333 2.816,-6.31467 0,-4.35199 -2.98666,-6.14399 -2.90133,-1.87734 -9.216,-1.87734 z"
       id="path12" />
    <path
       style="font-weight:bold;font-size:85.3333px;font-family:Sans;-inkscape-font-specification:'Sans, Bold';stroke-width:1.002"
       d="m 811.13236,233.8829 q 0,9.472 -3.15733,16.55466 -3.072,6.99733 -9.472,10.92266 -6.39999,3.92533 -16.38399,3.92533 -9.89866,0 -16.38399,-3.92533 -6.4,-3.92533 -9.55733,-11.00799 -3.072,-7.08267 -3.072,-16.55466 0,-9.472 3.072,-16.46933 3.15733,-6.99733 9.55733,-10.83733 6.48533,-3.92533 16.46932,-3.92533 9.89867,0 16.29866,3.92533 6.4,3.84 9.472,10.92266 3.15733,6.99733 3.15733,16.46933 z m -44.45865,0 q 0,9.55733 3.66933,15.10399 3.66934,5.46133 11.776,5.46133 8.27733,0 11.86133,-5.46133 3.584,-5.54666 3.584,-15.10399 0,-9.64266 -3.584,-15.10399 -3.584,-5.46133 -11.776,-5.46133 -8.19199,0 -11.86133,5.46133 -3.66933,5.46133 -3.66933,15.10399 z"
       id="path11" />
    <path
       id="path10"
       style="font-weight:bold;font-size:85.3333px;font-family:Sans;-inkscape-font-specification:'Sans, Bold';stroke-width:1.002"
       d="m 723.62695,203.50391 -8.47265,10.75195 h 11.5625 v 50.17578 h 12.88476 v -50.17578 h 16.55469 v -10.75195 z" />
    <path
       style="font-weight:bold;font-size:85.3333px;font-family:Sans;-inkscape-font-specification:'Sans, Bold';stroke-width:1.002"
       d="m 720.45511,264.43222 h -14.67733 l -15.95732,-25.68532 -5.46133,3.92533 v 21.75999 H 671.4738 v -60.92797 h 12.88533 v 27.90398 q 1.27999,-1.792 2.55999,-3.58399 1.28,-1.792 2.56,-3.584 l 16.46933,-20.73599 h 14.33599 l -21.24799,26.96532 z"
       id="path9" />
    <path
       style="font-weight:bold;font-size:85.3333px;font-family:Sans;-inkscape-font-specification:'Sans, Bold';stroke-width:1.002"
       d="m 668.11383,264.43222 h -16.38399 l -26.53866,-46.07998 h -0.34133 q 0.17066,4.352 0.34133,8.704 0.256,4.35199 0.42667,8.70399 v 28.67199 h -11.52 v -60.92797 h 16.29866 l 26.45332,45.65331 h 0.256 q -0.0853,-4.26666 -0.256,-8.448 -0.17066,-4.18133 -0.34133,-8.36266 v -28.84265 h 11.60533 z"
       id="path8" />
    <path
       style="font-weight:bold;font-size:85.3333px;font-family:Sans;-inkscape-font-specification:'Sans, Bold';stroke-width:1.002"
       d="m 610.24812,264.61786 h -13.02366 c 0.26643,-10.96012 0.60602,-39.19683 -0.0761,-60.92797 h 13.04292 c 0.23586,11.89038 0.33451,36.66749 0.0569,60.92797 z"
       id="text2" />
  </g>
</svg>
